<?xml version="1.0" encoding="utf-8"?>
<!-- Generator: Adobe Illustrator 17.0.0, SVG Export Plug-In . SVG Version: 6.00 Build 0)  -->
<!DOCTYPE svg PUBLIC "-//W3C//DTD SVG 1.1//EN" "http://www.w3.org/Graphics/SVG/1.1/DTD/svg11.dtd">
<svg version="1.1" id="Layer_1" xmlns="http://www.w3.org/2000/svg" xmlns:xlink="http://www.w3.org/1999/xlink" x="0px" y="0px"
	 width="2000px" height="2000px" viewBox="0 0 2000 2000" enable-background="new 0 0 2000 2000" xml:space="preserve">
<g>
	<path d="M805.732,481.462c-3.147,2.802-4.9,5.947-5.244,9.438c-0.352,3.498,0.262,6.21,1.835,8.127
		c1.573,1.926,3.753,2.45,6.555,1.573c2.794-0.868,5.94-4.276,9.438-10.225c4.891-8.389,7.34-17.213,7.34-26.479
		c0-9.258-2.188-17.826-6.555-25.692c-4.375-7.865-10.666-14.418-18.875-19.662c-8.217-5.244-17.918-7.865-29.1-7.865
		c-14.681,0-27.528,2.621-38.538,7.865c-11.01,5.244-20.277,12.059-27.789,20.449c-7.521,8.389-13.461,18.007-17.827,28.838
		c-4.375,10.838-7.078,21.678-8.127,32.508c-1.049,10.487-0.443,20.711,1.836,30.674c2.269,9.963,6.554,18.875,12.846,26.741
		c6.293,7.865,14.59,14.418,24.905,19.662c10.307,5.244,23.153,8.389,38.537,9.438c18.524,1.393,35.916-1.311,52.171-8.127
		c16.254-6.816,30.321-16.434,42.208-28.838c11.879-12.403,20.883-26.823,27.002-43.256c6.112-16.426,8.471-33.729,7.079-51.909
		c-1.401-13.633-4.809-25.34-10.225-35.129c-5.424-9.782-11.978-18.171-19.662-25.168c5.94-8.733,11.354-18.171,16.254-28.313
		c4.891-10.135,8.127-19.924,9.701-29.362c1.572-9.438,1.048-18.09-1.573-25.954c-2.621-7.865-8.479-13.895-17.565-18.09
		c-6.996-3.146-14.337-4.719-22.021-4.719c-7.693,0-15.033,0.877-22.022,2.622c-11.535,2.802-21.849,7.783-30.936,14.943
		c-9.094,7.168-15.729,15.033-19.924,23.594c-4.195,8.57-5.244,17.041-3.146,25.43c2.098,8.389,8.733,15.205,19.924,20.449
		c6.637,3.498,14.156,7.693,22.547,12.584c8.389,4.9,16.426,11.363,24.119,19.401c-4.195,4.547-8.045,8.045-11.535,10.486
		c-2.802,1.754-4.457,3.409-4.981,4.981c-0.524,1.573-0.443,3.065,0.262,4.457c0.696,1.4,1.745,2.449,3.146,3.146
		c1.393,0.705,2.622,0.877,3.671,0.524c1.744-0.344,4.195-1.836,7.34-4.457c3.147-2.622,6.637-5.85,10.487-9.7
		c4.891,6.291,9.176,13.551,12.846,21.759c3.67,8.217,6.029,17.393,7.078,27.528c1.393,16.778-0.262,32.246-4.981,46.403
		c-4.719,14.156-11.797,26.306-21.235,36.44c-9.438,10.135-20.711,17.737-33.819,22.809c-13.108,5.063-27.183,7.078-42.208,6.03
		c-8.045-0.705-15.467-2.541-22.283-5.506c-6.817-2.975-12.674-7.521-17.565-13.633c-4.898-6.12-8.57-13.723-11.01-22.809
		c-2.45-9.086-3.147-19.924-2.098-32.508c0.696-9.782,2.621-19.311,5.768-28.577c3.146-9.258,7.34-17.736,12.584-25.43
		c5.244-7.684,11.617-14.066,19.139-19.137c7.512-5.063,16.164-8.127,25.953-9.176c11.182-1.049,20.269,0.705,27.266,5.244
		c6.989,4.547,11.969,10.315,14.943,17.303c2.966,6.997,4.104,14.074,3.408,21.235C812.367,471.59,809.925,477.267,805.732,481.462z
		 M846.629,386.559c-7.34-5.588-14.861-10.397-22.546-14.42c-7.693-4.014-14.508-7.947-20.449-11.797
		c-7.34-4.195-11.191-8.996-11.535-14.418c-0.351-5.416,0.959-10.748,3.934-15.992c2.965-5.244,6.898-9.963,11.797-14.156
		c4.891-4.195,9.086-7.34,12.584-9.438c5.94-3.491,12.403-5.325,19.4-5.506c6.989-0.172,13.108,1.662,18.351,5.506
		c4.891,3.851,7.865,8.914,8.914,15.205c1.048,6.291,0.786,13.108-0.787,20.449c-1.573,7.34-4.113,14.943-7.602,22.808
		C855.19,372.664,851.167,379.923,846.629,386.559z"/>
	<path d="M942.055,465.632c1.392-3.319,2.793-6.637,4.195-9.963c1.393-3.319,2.965-6.202,4.719-8.651
		c1.393-2.097,0.869-3.752-1.573-4.981c-2.449-1.22-5.506-1.916-9.176-2.097c-3.67-0.172-7.258,0.262-10.748,1.311
		c-3.498,1.048-5.768,3.146-6.817,6.291l-28.313,97.525c-1.049,3.498-0.082,5.948,2.883,7.34c2.975,1.4,6.293,2.097,9.963,2.097
		c3.671,0,6.989-0.344,9.963-1.049c2.966-0.696,4.104-1.572,3.409-2.621c-1.401-1.393-1.049-5.85,1.049-13.371
		c2.097-7.512,5.244-15.811,9.438-24.905c4.195-9.086,8.996-18.17,14.418-27.264c5.416-9.086,10.748-16.074,15.992-20.973
		c1.048-0.696,2.441-1.745,4.195-3.146c1.745-1.393,3.318-2.27,4.719-2.622c1.393-0.344,2.359,0.443,2.883,2.36
		c0.524,1.925-0.09,5.685-1.834,11.273l-22.022,72.882c-1.049,3.498-0.262,5.948,2.36,7.34c2.621,1.4,5.678,2.187,9.176,2.359
		c3.49,0.18,6.637-0.082,9.438-0.787c2.793-0.696,3.842-1.572,3.146-2.621c-1.4-1.393-0.524-6.03,2.622-13.895
		c3.146-7.865,7.078-16.426,11.797-25.691c4.719-9.258,9.782-18.262,15.206-27.003c5.414-8.733,9.872-14.853,13.368-18.351
		c4.195-4.195,6.03-4.719,5.507-1.573c-0.526,3.146-2.187,8.307-4.981,15.467c-2.803,7.168-5.859,15.205-9.176,24.119
		c-3.325,8.914-5.505,16.869-6.552,23.857c-1.049,5.948-1.138,10.748-0.263,14.418c0.867,3.671,2.179,6.383,3.932,8.127
		c1.745,1.753,3.753,2.883,6.03,3.408c2.269,0.524,4.456,0.787,6.552,0.787c6.989-0.344,13.978-4.104,20.973-11.273
		c4.103-4.204,8.051-8.814,11.855-13.805c0.16,3.114,0.558,6.068,1.247,8.824c1.754,5.948,4.546,10.143,8.389,12.584
		c3.842,2.449,8.209,3.67,13.108,3.67c5.939,0,11.707-2.36,17.302-7.079c5.588-4.719,9.782-9.348,12.584-13.895
		c0.344-0.344,0.525,0.443,0.525,2.36c0,1.925,0.525,4.195,1.573,6.816c1.048,2.622,2.793,5.162,5.242,7.602
		c2.442,2.449,6.111,3.851,11.01,4.195c8.733,1.049,17.385-1.483,25.954-7.603c7.587-5.416,14.76-12.152,21.529-20.182l-1.347,4.714
		c-0.344,2.097-0.525,4.195-0.525,6.291c-0.344,5.244,1.138,9.266,4.457,12.059c3.327,2.802,7.34,4.375,12.059,4.719
		c4.718,0.344,10.307-0.787,16.778-3.408c6.464-2.622,13.28-7.865,20.449-15.729c0.129-0.142,0.251-0.283,0.379-0.425
		c-0.07,0.929-0.118,1.856-0.118,2.785c-0.344,5.244,1.138,9.266,4.457,12.059c3.327,2.802,7.34,4.375,12.059,4.719
		c4.718,0.344,10.307-0.787,16.778-3.408c6.465-2.622,13.28-7.865,20.449-15.729c7.161-7.865,13.108-15.639,17.826-23.333
		c4.72-7.684,8.914-14.943,12.584-21.759c3.671-6.817,7.25-14.156,10.749-22.022c3.489-7.865,3.489-11.445,0-10.748
		c-3.499,0.705-5.334,1.401-5.506,2.098c-0.18,0.705-0.263,1.573-0.263,2.621c-19.924,39.848-35.31,63.968-46.14,72.357
		c-10.838,8.389-17.132,11.01-18.875,7.865h-1.573c0.344-3.146,1.654-7.947,3.932-14.418c2.27-6.465,4.981-13.715,8.127-21.759
		c3.146-8.037,7.34-17.647,12.583-28.838c5.244-11.182,8.734-17.998,10.487-20.449l14.682-14.681
		c9.782-10.135,16.86-21.055,21.234-32.77c4.367-11.707,6.727-22.809,7.079-33.295c-0.705-9.086-2.803-15.205-6.291-18.351
		c-3.498-3.146-7.866-4.719-13.108-4.719c-5.947,0-10.929,2.974-14.943,8.914c-4.023,5.949-7.079,12.059-9.176,18.352l-5.242,15.205
		c-0.705,2.097-2.187,5.947-4.457,11.535c-2.278,5.596-4.9,12.322-7.865,20.186c-2.975,7.865-6.292,16.254-9.963,25.168
		c-3.671,8.914-7.079,17.746-10.225,26.479l-12.76,34.293c-6.828,10.36-12.714,17.462-17.649,21.286
		c-10.838,8.389-17.132,11.01-18.875,7.865h-1.573c0.344-3.146,1.654-7.947,3.932-14.418c2.27-6.465,4.981-13.715,8.127-21.759
		c3.146-8.037,7.34-17.647,12.583-28.838c5.244-11.182,8.734-17.998,10.487-20.449l14.682-14.681
		c9.782-10.135,16.86-21.055,21.234-32.77c4.367-11.707,6.727-22.809,7.079-33.295c-0.705-9.086-2.803-15.205-6.291-18.351
		c-3.499-3.146-7.866-4.719-13.108-4.719c-5.947,0-10.929,2.974-14.943,8.914c-4.024,5.949-7.079,12.059-9.176,18.352l-5.242,15.205
		c-0.705,2.097-2.187,5.947-4.457,11.535c-2.278,5.596-4.9,12.322-7.865,20.186c-2.975,7.865-6.292,16.254-9.963,25.168
		c-3.671,8.914-7.079,17.746-10.225,26.479l-4.625,12.431c-5.733,8.795-11.53,16.972-17.391,24.534
		c-6.645,8.57-12.764,15.385-18.353,20.449c-5.595,5.07-9.791,6.554-12.583,4.457c-1.049-0.696-1.229-2.442-0.525-5.244
		c0.697-2.794,2.006-6.374,3.932-10.748c1.917-4.367,4.104-9.258,6.555-14.681c2.442-5.416,5.062-10.92,7.865-16.516l10.487-22.022
		c2.098-4.195,0.697-6.816-4.196-7.865c0.696-1.049,0.436-2.966-0.786-5.768c-1.229-2.793-3.76-5.94-7.602-9.438
		c-3.147-2.793-6.735-4.629-10.748-5.506c-4.023-0.868-8.127-1.655-12.323-2.359c-12.583-1.745-23.946,0.786-34.08,7.603
		c-10.143,6.817-18.531,15.557-25.168,26.217c-6.644,10.666-11.354,21.849-14.156,33.557c-0.251,1.055-0.461,2.08-0.672,3.108
		c-0.474,0.708-0.943,1.435-1.42,2.135c-5.594,8.217-10.748,15.123-15.466,20.711c-4.722,5.596-8.31,8.045-10.748,7.34
		c-1.754-0.345-2.28-2.36-1.575-6.03c0.696-3.67,2.098-8.127,4.195-13.371c2.098-5.242,4.539-11.01,7.341-17.303
		c2.791-6.293,5.414-12.403,7.865-18.351c2.794-6.989,5.241-13.371,7.339-19.139c2.098-5.767,3.491-9.52,4.195-11.273
		c0.344-3.491-0.179-6.465-1.572-8.914c-1.401-2.441-3.328-4.195-5.769-5.244c-2.447-1.048-4.981-1.654-7.601-1.835
		c-2.62-0.172-5.161,0.262-7.601,1.31c-3.498,1.401-7.168,3.932-11.01,7.603c-3.851,3.67-7.694,7.783-11.537,12.322
		c-3.848,4.547-7.339,9.094-10.486,13.633c-3.146,4.547-5.767,8.217-7.865,11.01c0.696-1.745,1.655-4.195,2.883-7.34
		c1.221-3.146,2.36-7.161,3.409-12.059c2.441-8.389,2.792-14.592,1.048-18.614c-1.753-4.014-4.374-6.555-7.865-7.603
		c-3.498-1.049-7.43-0.959-11.797,0.262c-4.375,1.228-8.127,2.883-11.273,4.981c-2.098,1.4-4.637,3.588-7.602,6.554
		c-2.974,2.975-5.947,6.211-8.914,9.7c-2.974,3.499-5.858,7.079-8.651,10.748c-2.803,3.671-5.072,7.079-6.817,10.225
		c1.049-2.097,2.18-4.719,3.408-7.865C939.342,472.186,940.653,468.958,942.055,465.632z M1309.594,370.992v-1.573
		c1.049,2.449,2.27,5.244,3.671,8.389c-3.499,19.924-8.127,34.524-13.895,43.782c-5.768,9.266-11.274,16.344-16.516,21.234
		L1309.594,370.992z M1255.589,370.992v-1.573c1.049,2.449,2.27,5.244,3.671,8.389c-3.499,19.924-8.127,34.524-13.895,43.782
		c-5.768,9.266-11.274,16.344-16.516,21.234L1255.589,370.992z M1094.888,476.644c4.367-6.817,9.176-12.584,14.418-17.303
		c5.244-4.719,10.658-7.423,16.254-8.127c6.989-0.696,12.323,0.613,15.992,3.932c3.671,3.326,6.898,6.21,9.7,8.651
		c-4.548-0.344-9.094,0.09-13.633,1.311c-4.546,1.228-6.644,2.359-6.291,3.408c0.344,2.098-1.49,7.34-5.506,15.729
		c-4.023,8.389-8.914,17.041-14.682,25.954c-5.767,8.914-11.625,16.869-17.564,23.857c-5.948,6.997-10.487,10.315-13.633,9.963
		c-3.146-0.344-4.898-2.703-5.242-7.078c-0.352-4.367,0.261-9.872,1.834-16.516c1.573-6.637,3.932-13.895,7.079-21.76
		C1086.761,490.8,1090.514,483.46,1094.888,476.644z"/>
	<path d="M1054.27,1600.408c-1.754,3.147-3.497,6.644-5.242,10.487c-3.852,8.045-7.43,16.082-10.749,24.12
		c-3.325,8.045-5.334,14.509-6.03,19.4c-0.705,5.947-0.352,10.748,1.049,14.418c1.393,3.67,3.408,6.472,6.03,8.389
		c2.622,1.926,5.416,3.236,8.389,3.932c2.966,0.705,5.678,1.049,8.127,1.049c6.988,0,14.418-3.58,22.283-10.748
		c4.679-4.261,9.199-8.937,13.569-14.006c0.551,5.233,1.88,9.819,3.99,13.742c2.449,5.244,6.111,8.832,11.009,10.749
		c4.891,1.916,10.225,2.703,15.992,2.359c5.768-0.352,11.618-1.754,17.565-4.196c5.94-2.442,11.184-5.414,15.731-8.914
		c6.291-4.89,12.141-10.568,17.564-17.041c5.416-6.463,10.307-13.107,14.682-19.924c4.365-6.816,8.209-13.371,11.535-19.662
		c3.316-6.292,6.03-11.707,8.126-16.255c1.745-4.537,1.483-6.988-0.786-7.34c-2.278-0.344-4.285,0.877-6.03,3.671
		c-1.754,3.497-4.193,8.306-7.34,14.418c-3.147,6.119-6.907,12.584-11.274,19.4c-4.374,6.816-9.175,13.551-14.42,20.186
		c-5.242,6.645-10.837,12.059-16.778,16.255c-7.34,5.242-13.37,7.954-18.09,8.126c-4.718,0.181-8.045-1.572-9.963-5.242
		c-1.925-3.671-2.62-8.914-2.097-15.731c0.523-6.816,2.359-14.418,5.506-22.807c5.939-15.025,12.058-26.912,18.351-35.654
		c6.291-8.733,13.451-14.854,21.498-18.351c6.635-2.794,10.307-2.885,11.009-0.263c0.697,2.622,0.869,6.03,0.525,10.225
		c-0.352,2.8,0.263,3.849,1.836,3.144c1.573-0.696,2.703-2.097,3.408-4.193c3.147-8.038,2.531-13.715-1.835-17.041
		c-4.375-3.319-10.053-4.801-17.041-4.457c-9.094,0.705-17.393,3.325-24.905,7.865c-7.521,4.548-14.157,10.225-19.924,17.041
		c-5.768,6.816-10.668,14.156-14.682,22.022c-4.015,7.865-7.251,15.295-9.699,22.283c-0.786,2.557-1.433,4.99-1.97,7.325
		c-0.391,0.526-0.778,1.067-1.169,1.589c-6.291,8.389-12.239,15.385-17.826,20.973c-5.595,5.595-9.791,8.045-12.584,7.34
		c-2.095-0.344-2.883-2.27-2.359-5.767c0.524-3.491,1.834-7.865,3.932-13.108c2.098-5.242,4.629-11.01,7.604-17.303
		c2.966-6.291,5.85-12.403,8.651-18.351c3.145-6.989,5.85-13.28,8.126-18.875c2.27-5.588,3.581-9.259,3.932-11.012
		c0-3.491-0.785-6.465-2.359-8.914c-1.573-2.442-3.669-4.196-6.291-5.244s-5.596-1.654-8.914-1.835
		c-3.327-0.172-6.383,0.261-9.176,1.31c-4.196,1.401-8.651,3.932-13.37,7.602c-4.719,3.671-9.266,7.783-13.633,12.322
		c-4.374,4.548-8.478,9.004-12.322,13.371c-3.852,4.375-6.816,7.955-8.914,10.749c0.696-1.049,1.654-3.229,2.883-6.555
		c1.221-3.319,2.622-6.898,4.195-10.749c1.573-3.841,3.316-7.684,5.242-11.534c1.917-3.843,4.104-7.161,6.555-9.963
		c1.393-2.098,0.697-3.753-2.098-4.981c-2.8-1.221-6.383-1.917-10.748-2.098c-4.375-0.172-8.651,0.262-12.846,1.31
		c-4.195,1.049-6.817,3.147-7.866,6.292c-1.048,3.849-2.972,9.88-5.767,18.089c-2.803,8.217-5.768,17.132-8.914,26.741
		c-3.147,9.619-6.293,19.137-9.438,28.574c-2.273,6.821-4.174,12.716-5.717,17.711c-4.078,2.701-8.722,4.581-13.938,5.621
		c-6.12,1.229-12.846,1.664-20.188,1.311c-1.4-5.244-1.138-12.584,0.787-22.022c1.917-9.438,4.801-20.096,8.651-31.985
		c3.842-11.879,8.389-24.463,13.633-37.752c5.242-13.28,10.658-26.387,16.254-39.324c5.588-12.928,10.921-25.34,15.992-37.227
		c5.063-11.879,9.348-22.194,12.845-30.936c4.195,1.049,9.872,2.277,17.041,3.669c7.161,1.401,14.42,2.622,21.761,3.671
		c1.745,7.34,4.89,13.026,9.438,17.041c4.537,4.021,8.733,6.644,12.583,7.865c3.843,1.229,6.465,1.229,7.866,0
		c1.393-1.221,0-3.58-4.196-7.079c-2.803-1.745-5.506-3.932-8.127-6.553c-2.62-2.621-4.981-6.03-7.077-10.224
		c9.438,0.705,18.785,0.441,28.05-0.788c9.258-1.221,17.041-3.932,23.332-8.126c9.439-5.94,13.716-12.667,12.847-20.188
		c-0.877-7.512-7.079-14.239-18.614-20.186c-2.45-1.049-4.981-1.917-7.602-2.622c-2.621-0.696-5.162-1.393-7.601-2.098
		c-9.094-1.745-17.132-0.605-24.12,3.408c-6.996,4.023-11.887,9.528-14.682,16.516c-0.704,2.803-1.4,5.596-2.097,8.389
		c-0.705,2.803-1.229,5.424-1.573,7.866c-6.292-1.049-12.412-2.27-18.351-3.671c-5.949-1.393-11.535-2.794-16.78-4.195
		c-5.242-1.393-10.142-2.703-14.679-3.932c-4.547-1.221-9.356-2.27-14.418-3.146c-5.072-0.869-10.487-1.573-16.255-2.098
		c-5.767-0.525-12.502-0.788-20.186-0.788c-13.985,0-26.741,1.664-38.276,4.981c-11.535,3.327-21.415,7.783-29.625,13.372
		c-8.217,5.595-14.599,11.797-19.137,18.613c-4.547,6.816-6.817,13.894-6.817,21.237c0,3.497,0.606,6.029,1.836,7.601
		c1.221,1.573,2.621,2.278,4.195,2.098c1.573-0.172,3.055-1.13,4.457-2.883c1.393-1.746,2.098-4.016,2.098-6.816
		c0-6.292,1.483-12.059,4.457-17.304c2.965-5.242,7.34-9.871,13.108-13.895c5.768-4.015,12.756-7.16,20.973-9.438
		c8.209-2.27,17.385-3.408,27.528-3.408c6.291,0,13.543,0.525,21.759,1.573c8.209,1.049,18.088,2.972,29.625,5.767
		c-12.24,27.617-22.988,54.358-32.246,80.222c-9.266,25.873-17.221,48.942-23.857,69.211c-1.401,4.9-2.803,9.881-4.195,14.943
		c-1.4,5.072-2.449,10.053-3.146,14.943c-0.705,4.9-0.787,9.438-0.262,13.633c0.524,4.196,2.008,7.693,4.457,10.487
		c-11.191-1.393-22.545-3.49-34.081-6.291c-11.535-2.794-22.726-4.981-33.557-6.555c-10.838-1.573-20.629-2.008-29.362-1.311
		c-8.742,0.705-15.729,3.499-20.972,8.39c-2.794,2.8-5.153,6.029-7.079,9.699c-1.917,3.671-3.055,7.512-3.408,11.535
		c-0.344,4.015,0.262,7.946,1.834,11.797c1.573,3.842,4.457,7.161,8.651,9.963c1.392,1.049,3.055,1.483,4.981,1.311
		c1.916-0.181,3.318-0.705,4.195-1.573c0.868-0.877,1.131-2.015,0.787-3.408c-0.352-1.401-1.754-2.975-4.195-4.719
		c-1.753-1.049-2.974-2.711-3.67-4.981c-0.705-2.278-0.966-4.718-0.787-7.34c0.172-2.622,1.131-5.244,2.885-7.865
		c1.744-2.623,4.539-4.801,8.389-6.554c4.891-2.098,9.258-3.491,13.108-4.196c3.843-0.696,7.603-0.785,11.273-0.261
		c3.671,0.525,7.603,1.31,11.797,2.359c4.195,1.049,9.086,2.098,14.681,3.147c16.426,3.145,32.942,5.767,49.549,7.865
		c16.598,2.098,31.46,1.745,44.569-1.049c4.417-0.942,8.508-2.24,12.29-3.877c0.493,0.485,1.113,0.905,1.86,1.255
		c2.972,1.401,6.291,2.098,9.963,2.098c3.669,0,6.988-0.344,9.963-1.049c2.964-0.696,3.932-1.573,2.883-2.622
		c-1.754-1.393-0.966-6.111,2.359-14.156c3.318-8.037,8.036-16.86,14.156-26.479c6.111-9.61,12.846-19.047,20.185-28.313
		c7.342-9.258,13.977-15.992,19.924-20.188c3.843-2.793,6.374-4.276,7.604-4.457c1.221-0.172,0.958,1.664-0.785,5.506
		C1057.76,1593.773,1056.014,1597.263,1054.27,1600.408z M1054.014,1459.628c0.172-2.27,0.787-4.801,1.836-7.603
		c2.792-5.588,7.249-9.52,13.37-11.797c6.111-2.27,14.238-2.008,24.381,0.786c1.745,0.352,3.752,1.229,6.03,2.622
		c2.269,1.401,3.932,3.146,4.981,5.242c1.049,2.098,1.049,4.285,0,6.555c-1.049,2.278-4.195,4.637-9.438,7.079
		c-5.948,2.8-12.503,4.374-19.663,4.718c-7.168,0.352-14.599,0-22.283-1.049C1053.572,1464.084,1053.833,1461.904,1054.014,1459.628
		z"/>
	<path d="M442.979,900.853v-5.956c0-22.531-9.371-38.468-28.111-47.81c18.739-9.338,28.111-25.276,28.111-47.81v-97.548
		c0-48.102-22.792-72.212-68.373-72.33h-79.072v343.608h75.807C419.098,972.892,442.979,948.839,442.979,900.853z M346.857,678.261
		h22.489c14.872,0,22.307,7.824,22.307,23.468v97.548c0,10.974-4.657,18.274-13.965,21.891c-2.661,0.936-7.558,1.401-14.69,1.401
		h-16.141V678.261z M346.857,924.146v-52.539h16.141c7.132,0,12.029,0.526,14.69,1.576c9.308,3.503,13.965,10.743,13.965,21.716
		v5.956c0,15.529-7.435,23.292-22.307,23.292h-22.489V924.146z"/>
	<path d="M489.192,906.283c0,48.221,24.543,72.329,73.633,72.329c49.208-0.118,73.813-24.226,73.813-72.329V629.399h-51.324v276.883
		c0,15.529-7.499,23.292-22.489,23.292c-14.872,0-22.307-7.763-22.307-23.292V629.399h-51.325V906.283z"/>
	<path d="M832.111,906.283v-10.508c0-30.823-16.022-57.269-48.061-79.336c-32.041-22.182-48.061-40.92-48.061-56.216v-64.097
		c0-15.526,7.374-23.294,22.127-23.294h0.362c14.872,0.118,22.307,7.882,22.307,23.294v46.235h51.325v-46.235
		c0-48.102-24.606-72.154-73.814-72.154c-49.088,0-73.631,24.053-73.631,72.154v65.149c0,31.642,16.019,58.494,48.061,80.56
		c32.038,22.183,48.059,41.566,48.059,58.144v6.305c0,15.529-7.435,23.292-22.307,23.292c-14.993,0-22.489-7.763-22.489-23.292
		v-34.502h-51.324v34.502c0,48.103,24.602,72.212,73.813,72.329C807.565,978.612,832.111,954.504,832.111,906.283z"/>
	<rect x="882.857" y="629.399" width="51.325" height="343.608"/>
	<polygon points="1136.003,629.399 1088.485,629.399 1088.485,828.699 1039.882,629.399 988.558,629.399 988.558,973.007 
		1037.887,973.007 1037.887,780.012 1084.678,973.007 1136.003,973.007 	"/>
	<polygon points="1322.589,924.146 1240.795,924.146 1240.795,871.431 1311.163,871.431 1311.163,822.395 1240.795,822.395 
		1240.795,678.261 1322.589,678.261 1322.589,629.399 1189.471,629.399 1189.471,973.007 1322.589,973.007 	"/>
	<path d="M1510.807,906.283v-10.508c0-30.823-16.023-57.269-48.061-79.336c-32.042-22.182-48.061-40.92-48.061-56.216v-64.097
		c0-15.526,7.373-23.294,22.125-23.294h0.363c14.871,0.118,22.306,7.882,22.306,23.294v46.235h51.325v-46.235
		c0-48.102-24.607-72.154-73.815-72.154c-49.088,0-73.633,24.053-73.633,72.154v65.149c0,31.642,16.021,58.494,48.061,80.56
		c32.039,22.183,48.061,41.566,48.061,58.144v6.305c0,15.529-7.435,23.292-22.306,23.292c-14.995,0-22.489-7.763-22.489-23.292
		v-34.502h-51.325v34.502c0,48.103,24.604,72.212,73.815,72.329C1486.26,978.612,1510.807,954.504,1510.807,906.283z"/>
	<path d="M1704.467,742.36v-46.235c0-48.102-24.607-72.154-73.815-72.154c-49.088,0-73.632,24.053-73.632,72.154v65.149
		c0,31.642,16.021,58.494,48.061,80.56c32.039,22.183,48.061,41.566,48.061,58.144v6.305c0,15.529-7.435,23.292-22.306,23.292
		c-14.994,0-22.489-7.763-22.489-23.292v-34.502h-51.325v34.502c0,48.103,24.604,72.212,73.815,72.329
		c49.086,0,73.633-24.109,73.633-72.329v-10.508c0-30.823-16.023-57.269-48.061-79.336c-32.042-22.182-48.061-40.92-48.061-56.217
		v-64.097c0-15.526,7.373-23.294,22.125-23.294h0.363c14.871,0.118,22.306,7.882,22.306,23.294v46.235h51.325V742.36z"/>
	<polygon points="440.19,1191.819 465.935,1369.227 533.886,1369.227 568.739,1147.51 584.851,1025.619 534.762,1025.619 
		499.735,1290.418 464.71,1025.619 415.498,1025.619 380.471,1290.418 345.445,1025.619 295.533,1025.619 311.645,1147.16 
		346.671,1369.227 414.622,1369.227 	"/>
	<polygon points="743.17,1074.479 743.17,1025.619 614.622,1025.619 614.622,1369.227 743.17,1369.227 743.17,1320.364 
		664.184,1320.364 664.184,1267.65 732.135,1267.65 732.135,1218.613 664.184,1218.613 664.184,1074.479 	"/>
	<path d="M922.329,1297.073v-5.956c0-22.531-9.05-38.469-27.145-47.81c18.096-9.338,27.145-25.276,27.145-47.81v-97.548
		c0-48.101-22.01-72.212-66.026-72.328h-76.357v343.607h73.205C899.269,1369.113,922.329,1345.059,922.329,1297.073z
		 M829.509,1074.479h21.716c14.362,0,21.542,7.825,21.542,23.469v97.548c0,10.977-4.497,18.274-13.485,21.891
		c-2.571,0.937-7.299,1.401-14.187,1.401h-15.586V1074.479z M829.509,1320.364v-52.539h15.586c6.888,0,11.617,0.526,14.187,1.577
		c8.987,3.5,13.485,10.741,13.485,21.715v5.956c0,15.529-7.18,23.292-21.542,23.292h-21.716V1320.364z"/>
	<path d="M1101.49,1138.578v-46.235c0-48.101-23.76-72.154-71.28-72.154c-47.404,0-71.104,24.053-71.104,72.154v65.15
		c0,31.642,15.468,58.494,46.411,80.56c30.937,22.184,46.409,41.566,46.409,58.144v6.304c0,15.529-7.18,23.292-21.542,23.292
		c-14.48,0-21.716-7.762-21.716-23.292v-34.5h-49.563v34.5c0,48.103,23.758,72.212,71.28,72.328c47.4,0,71.104-24.109,71.104-72.328
		v-10.508c0-30.823-15.472-57.269-46.411-79.336c-30.941-22.182-46.409-40.92-46.409-56.217v-64.097
		c0-15.526,7.12-23.292,21.367-23.292h0.35c14.362,0.118,21.542,7.88,21.542,23.292v46.235h49.563V1138.578z"/>
	<rect x="1144.397" y="1025.619" width="49.561" height="343.607"/>
	<polygon points="1322.328,1369.227 1322.328,1074.479 1368.74,1074.479 1368.74,1025.619 1226.356,1025.619 1226.356,1074.479 
		1272.768,1074.479 1272.768,1369.227 	"/>
	<polygon points="1528.809,1074.479 1528.809,1025.619 1400.264,1025.619 1400.264,1369.227 1528.809,1369.227 1528.809,1320.364 
		1449.825,1320.364 1449.825,1267.65 1517.776,1267.65 1517.776,1218.613 1449.825,1218.613 1449.825,1074.479 	"/>
	<path d="M1633.188,1020.19c-47.403,0-71.103,24.053-71.103,72.154v65.15c0,31.642,15.469,58.494,46.409,80.56
		c30.937,22.184,46.409,41.566,46.409,58.144v6.304c0,15.529-7.18,23.292-21.542,23.292c-14.477,0-21.717-7.762-21.717-23.292v-34.5
		h-49.561v34.5c0,48.103,23.758,72.212,71.277,72.328c47.4,0,71.104-24.109,71.104-72.328v-10.508
		c0-30.823-15.472-57.269-46.409-79.336c-30.94-22.182-46.411-40.92-46.411-56.217v-64.097c0-15.526,7.121-23.292,21.366-23.292
		h0.35c14.362,0.118,21.542,7.88,21.542,23.292v46.235h49.563v-46.235C1704.467,1044.242,1680.706,1020.19,1633.188,1020.19z"/>
	<polygon points="575.738,465.886 562.916,439.904 550.092,465.886 521.419,470.053 542.167,490.277 537.269,518.834 
		562.916,505.352 588.561,518.834 583.662,490.277 604.411,470.053 	"/>
	<polygon points="1449.907,465.886 1437.084,439.904 1424.262,465.886 1395.589,470.053 1416.337,490.277 1411.439,518.834 
		1437.084,505.352 1462.731,518.834 1457.832,490.277 1478.58,470.053 	"/>
	<polygon points="665.06,1532.404 652.237,1506.422 639.415,1532.404 610.742,1536.571 631.49,1556.795 626.591,1585.353 
		652.237,1571.87 677.883,1585.353 672.985,1556.795 693.733,1536.571 	"/>
	<polygon points="1360.585,1532.404 1347.763,1506.422 1334.94,1532.404 1306.267,1536.571 1327.015,1556.795 1322.117,1585.353 
		1347.763,1571.87 1373.408,1585.353 1368.51,1556.795 1389.258,1536.571 	"/>
</g>
</svg>
