<?xml version="1.0" encoding="utf-8"?>
<!-- Generator: Adobe Illustrator 17.0.0, SVG Export Plug-In . SVG Version: 6.00 Build 0)  -->
<!DOCTYPE svg PUBLIC "-//W3C//DTD SVG 1.1//EN" "http://www.w3.org/Graphics/SVG/1.1/DTD/svg11.dtd">
<svg version="1.1" id="Layer_1" xmlns="http://www.w3.org/2000/svg" xmlns:xlink="http://www.w3.org/1999/xlink" x="0px" y="0px"
	 width="2000px" height="2000px" viewBox="0 0 2000 2000" enable-background="new 0 0 2000 2000" xml:space="preserve">
<g>
	<path d="M838.504,568.835c-2.616,2.329-4.073,4.944-4.359,7.846c-0.293,2.908,0.218,5.162,1.525,6.756
		c1.308,1.601,3.12,2.037,5.449,1.308c2.323-0.722,4.938-3.555,7.846-8.5c4.066-6.974,6.102-14.309,6.102-22.012
		c0-7.696-1.819-14.819-5.449-21.358c-3.637-6.538-8.867-11.986-15.691-16.345c-6.831-4.359-14.895-6.538-24.191-6.538
		c-12.204,0-22.884,2.179-32.037,6.538s-16.856,10.025-23.101,16.999c-6.252,6.974-11.19,14.969-14.82,23.973
		c-3.637,9.01-5.884,18.021-6.756,27.024c-0.872,8.718-0.368,17.217,1.526,25.499c1.886,8.282,5.448,15.691,10.679,22.23
		c5.231,6.538,12.129,11.986,20.704,16.345c8.568,4.359,19.247,6.974,32.036,7.846c15.399,1.158,29.857-1.09,43.37-6.756
		c13.512-5.666,25.206-13.662,35.088-23.973c9.875-10.311,17.36-22.298,22.447-35.959c5.081-13.655,7.042-28.039,5.885-43.152
		c-1.165-11.333-3.998-21.065-8.5-29.203c-4.509-8.132-9.957-15.106-16.345-20.922c4.938-7.26,9.439-15.106,13.512-23.537
		c4.066-8.425,6.756-16.563,8.064-24.409c1.307-7.846,0.871-15.038-1.308-21.576c-2.179-6.538-7.049-11.551-14.602-15.038
		c-5.816-2.615-11.918-3.923-18.306-3.923c-6.395,0-12.497,0.729-18.307,2.18c-9.589,2.329-18.163,6.47-25.717,12.422
		c-7.56,5.959-13.076,12.497-16.563,19.614c-3.487,7.124-4.359,14.166-2.615,21.14c1.744,6.974,7.26,12.64,16.563,16.999
		c5.517,2.908,11.768,6.395,18.743,10.461c6.974,4.073,13.655,9.446,20.05,16.128c-3.487,3.78-6.688,6.688-9.589,8.717
		c-2.329,1.458-3.705,2.834-4.141,4.141c-0.436,1.308-0.368,2.548,0.218,3.705c0.579,1.164,1.451,2.036,2.615,2.615
		c1.158,0.586,2.18,0.729,3.052,0.436c1.45-0.286,3.487-1.526,6.102-3.705c2.616-2.18,5.517-4.863,8.718-8.064
		c4.066,5.23,7.628,11.265,10.679,18.088c3.051,6.831,5.012,14.459,5.884,22.884c1.158,13.948-0.218,26.806-4.141,38.575
		c-3.923,11.768-9.807,21.868-17.653,30.293c-7.846,8.425-17.217,14.745-28.114,18.961c-10.897,4.209-22.597,5.884-35.088,5.013
		c-6.688-0.586-12.858-2.112-18.524-4.577c-5.667-2.473-10.536-6.252-14.602-11.333c-4.072-5.088-7.124-11.408-9.153-18.961
		c-2.037-7.553-2.616-16.563-1.744-27.024c0.579-8.132,2.179-16.053,4.795-23.756c2.615-7.696,6.102-14.744,10.461-21.14
		c4.359-6.388,9.657-11.693,15.91-15.909c6.245-4.209,13.437-6.756,21.575-7.628c9.296-0.872,16.85,0.586,22.666,4.359
		c5.81,3.78,9.95,8.575,12.422,14.384c2.466,5.817,3.412,11.7,2.833,17.653C844.02,560.629,841.99,565.348,838.504,568.835z
		 M872.502,489.942c-6.102-4.645-12.354-8.643-18.743-11.987c-6.395-3.337-12.061-6.606-16.999-9.807
		c-6.102-3.487-9.303-7.478-9.589-11.986c-0.292-4.502,0.797-8.935,3.27-13.294c2.465-4.359,5.734-8.282,9.807-11.768
		c4.066-3.487,7.553-6.102,10.461-7.846c4.938-2.902,10.311-4.427,16.127-4.577c5.81-0.143,10.897,1.382,15.255,4.577
		c4.066,3.201,6.538,7.41,7.41,12.64c0.871,5.23,0.653,10.897-0.654,16.999c-1.308,6.102-3.419,12.422-6.32,18.96
		C879.619,478.391,876.275,484.426,872.502,489.942z"/>
	<path d="M951.83,555.676c1.157-2.759,2.322-5.517,3.487-8.282c1.158-2.759,2.465-5.156,3.923-7.192
		c1.158-1.743,0.722-3.119-1.308-4.141c-2.036-1.014-4.577-1.593-7.628-1.743c-3.051-0.143-6.034,0.218-8.935,1.09
		c-2.908,0.871-4.795,2.615-5.667,5.23l-23.537,81.073c-0.872,2.908-0.068,4.945,2.397,6.102c2.473,1.164,5.231,1.743,8.282,1.743
		c3.052,0,5.81-0.286,8.282-0.872c2.466-0.579,3.412-1.307,2.834-2.179c-1.165-1.158-0.872-4.863,0.872-11.115
		c1.743-6.245,4.359-13.144,7.846-20.704c3.487-7.553,7.478-15.105,11.986-22.665c4.502-7.553,8.935-13.362,13.294-17.435
		c0.871-0.579,2.029-1.451,3.487-2.615c1.451-1.158,2.758-1.887,3.923-2.18c1.158-0.286,1.961,0.368,2.397,1.962
		c0.436,1.6-0.075,4.726-1.525,9.371l-18.307,60.587c-0.872,2.908-0.218,4.945,1.962,6.102c2.179,1.164,4.72,1.818,7.628,1.961
		c2.901,0.15,5.517-0.068,7.846-0.654c2.322-0.579,3.194-1.307,2.615-2.179c-1.164-1.158-0.436-5.013,2.18-11.551
		c2.615-6.538,5.884-13.655,9.807-21.357c3.923-7.696,8.132-15.181,12.641-22.448c4.501-7.26,8.207-12.347,11.113-15.255
		c3.487-3.487,5.013-3.923,4.578-1.308c-0.437,2.615-1.818,6.906-4.141,12.858c-2.33,5.959-4.871,12.64-7.628,20.05
		c-2.764,7.41-4.576,14.023-5.447,19.832c-0.872,4.945-0.946,8.935-0.219,11.986c0.721,3.052,1.811,5.306,3.269,6.756
		c1.451,1.457,3.12,2.397,5.013,2.833c1.886,0.436,3.704,0.654,5.447,0.654c5.81-0.286,11.62-3.412,17.435-9.371
		c3.411-3.495,6.693-7.327,9.855-11.476c0.133,2.589,0.464,5.044,1.037,7.335c1.458,4.945,3.779,8.432,6.974,10.461
		c3.194,2.036,6.824,3.051,10.897,3.051c4.937,0,9.732-1.962,14.383-5.885c4.645-3.923,8.132-7.771,10.461-11.551
		c0.286-0.286,0.436,0.368,0.436,1.962c0,1.6,0.436,3.487,1.308,5.666c0.871,2.18,2.322,4.291,4.358,6.32
		c2.03,2.036,5.08,3.201,9.153,3.487c7.26,0.872,14.452-1.233,21.576-6.32c6.307-4.502,12.27-10.102,17.897-16.777l-1.12,3.919
		c-0.286,1.743-0.436,3.487-0.436,5.23c-0.286,4.359,0.946,7.703,3.705,10.025c2.766,2.329,6.102,3.637,10.025,3.923
		c3.922,0.286,8.568-0.654,13.948-2.833c5.374-2.18,11.04-6.538,16.999-13.076c0.107-0.118,0.209-0.235,0.315-0.353
		c-0.058,0.772-0.098,1.543-0.098,2.315c-0.286,4.359,0.946,7.703,3.705,10.025c2.766,2.329,6.102,3.637,10.025,3.923
		c3.922,0.286,8.568-0.654,13.948-2.833c5.374-2.18,11.04-6.538,16.999-13.076c5.953-6.538,10.897-13.001,14.819-19.397
		c3.924-6.388,7.41-12.422,10.461-18.088c3.052-5.667,6.027-11.768,8.936-18.307c2.9-6.538,2.9-9.514,0-8.935
		c-2.909,0.586-4.434,1.165-4.577,1.744c-0.15,0.586-0.219,1.308-0.219,2.179c-16.563,33.126-29.353,53.177-38.356,60.151
		c-9.01,6.974-14.242,9.153-15.691,6.538h-1.308c0.286-2.615,1.375-6.606,3.269-11.986c1.887-5.374,4.141-11.401,6.756-18.088
		c2.615-6.681,6.102-14.67,10.46-23.973c4.359-9.296,7.261-14.962,8.718-16.999l12.205-12.204
		c8.132-8.425,14.016-17.503,17.652-27.242c3.63-9.732,5.592-18.961,5.885-27.678c-0.586-7.553-2.33-12.64-5.23-15.255
		c-2.908-2.615-6.539-3.923-10.897-3.923c-4.944,0-9.085,2.472-12.422,7.41c-3.344,4.945-5.885,10.025-7.628,15.256l-4.358,12.64
		c-0.586,1.743-1.818,4.944-3.705,9.589c-1.894,4.652-4.073,10.243-6.538,16.781c-2.473,6.538-5.231,13.512-8.282,20.922
		c-3.052,7.41-5.885,14.752-8.5,22.012l-10.607,28.508c-5.676,8.612-10.569,14.516-14.672,17.695
		c-9.01,6.974-14.242,9.153-15.691,6.538h-1.308c0.286-2.615,1.375-6.606,3.269-11.986c1.887-5.374,4.141-11.401,6.756-18.088
		c2.615-6.681,6.102-14.67,10.46-23.973c4.359-9.296,7.261-14.962,8.718-16.999l12.205-12.204
		c8.132-8.425,14.016-17.503,17.652-27.242c3.63-9.732,5.592-18.961,5.885-27.678c-0.586-7.553-2.33-12.64-5.23-15.255
		c-2.909-2.615-6.539-3.923-10.897-3.923c-4.944,0-9.085,2.472-12.422,7.41c-3.345,4.945-5.885,10.025-7.628,15.256l-4.358,12.64
		c-0.586,1.743-1.818,4.944-3.705,9.589c-1.894,4.652-4.073,10.243-6.538,16.781c-2.473,6.538-5.231,13.512-8.282,20.922
		c-3.052,7.41-5.885,14.752-8.5,22.012l-3.845,10.334c-4.766,7.311-9.585,14.109-14.457,20.395
		c-5.524,7.124-10.611,12.79-15.257,16.999c-4.651,4.215-8.139,5.448-10.46,3.705c-0.872-0.579-1.022-2.03-0.436-4.359
		c0.579-2.323,1.668-5.299,3.269-8.935c1.594-3.63,3.412-7.696,5.449-12.204c2.03-4.502,4.208-9.078,6.538-13.73l8.718-18.307
		c1.744-3.487,0.579-5.666-3.488-6.538c0.579-0.872,0.362-2.466-0.653-4.795c-1.022-2.322-3.126-4.938-6.32-7.846
		c-2.616-2.322-5.599-3.848-8.935-4.577c-3.344-0.722-6.756-1.376-10.244-1.961c-10.46-1.451-19.906,0.653-28.331,6.32
		c-8.432,5.667-15.405,12.933-20.922,21.794c-5.523,8.867-9.439,18.163-11.768,27.896c-0.209,0.877-0.383,1.729-0.559,2.584
		c-0.394,0.589-0.784,1.193-1.18,1.775c-4.65,6.831-8.935,12.572-12.857,17.217c-3.925,4.652-6.908,6.688-8.935,6.102
		c-1.458-0.287-1.895-1.962-1.309-5.013c0.579-3.051,1.744-6.756,3.487-11.115c1.744-4.358,3.773-9.153,6.103-14.384
		c2.32-5.231,4.501-10.311,6.538-15.255c2.323-5.81,4.357-11.115,6.101-15.91c1.744-4.794,2.902-7.914,3.487-9.371
		c0.286-2.902-0.149-5.374-1.307-7.41c-1.165-2.029-2.767-3.487-4.796-4.359c-2.034-0.871-4.141-1.375-6.319-1.525
		c-2.178-0.143-4.29,0.218-6.319,1.089c-2.908,1.165-5.959,3.269-9.153,6.32c-3.201,3.051-6.396,6.47-9.591,10.243
		c-3.199,3.78-6.101,7.56-8.717,11.333c-2.615,3.78-4.794,6.831-6.538,9.153c0.579-1.451,1.376-3.487,2.397-6.102
		c1.015-2.615,1.962-5.953,2.834-10.025c2.029-6.974,2.321-12.13,0.871-15.474c-1.457-3.337-3.636-5.449-6.538-6.32
		c-2.908-0.872-6.177-0.797-9.807,0.218c-3.637,1.021-6.756,2.397-9.371,4.141c-1.744,1.164-3.855,2.983-6.32,5.448
		c-2.472,2.473-4.944,5.163-7.41,8.064c-2.472,2.909-4.87,5.885-7.192,8.935c-2.33,3.052-4.216,5.885-5.667,8.5
		c0.872-1.743,1.812-3.923,2.833-6.538C949.575,561.124,950.665,558.441,951.83,555.676z M1257.367,477.001v-1.308
		c0.872,2.036,1.887,4.359,3.052,6.974c-2.909,16.563-6.756,28.7-11.551,36.396c-4.795,7.703-9.372,13.587-13.73,17.652
		L1257.367,477.001z M1212.472,477.001v-1.308c0.872,2.036,1.887,4.359,3.052,6.974c-2.909,16.563-6.756,28.7-11.551,36.396
		c-4.795,7.703-9.372,13.587-13.73,17.652L1212.472,477.001z M1078.881,564.83c3.63-5.667,7.628-10.461,11.986-14.384
		c4.359-3.923,8.86-6.171,13.512-6.756c5.81-0.579,10.244,0.51,13.294,3.269c3.052,2.765,5.734,5.162,8.064,7.192
		c-3.781-0.286-7.56,0.075-11.333,1.09c-3.779,1.021-5.523,1.961-5.23,2.833c0.286,1.744-1.239,6.102-4.577,13.076
		c-3.344,6.974-7.41,14.166-12.205,21.576c-4.794,7.41-9.664,14.023-14.601,19.832c-4.945,5.817-8.718,8.575-11.333,8.282
		c-2.615-0.286-4.072-2.247-4.358-5.884c-0.293-3.63,0.217-8.207,1.525-13.73c1.308-5.517,3.269-11.551,5.885-18.089
		C1072.125,576.598,1075.245,570.496,1078.881,564.83z"/>
	<path d="M1045.115,1499.02c-1.458,2.616-2.907,5.523-4.358,8.718c-3.202,6.688-6.177,13.369-8.936,20.051
		c-2.764,6.688-4.434,12.061-5.013,16.127c-0.586,4.944-0.293,8.935,0.872,11.986c1.158,3.051,2.833,5.38,5.013,6.974
		c2.18,1.601,4.502,2.69,6.974,3.269c2.466,0.586,4.72,0.872,6.756,0.872c5.809,0,11.986-2.976,18.524-8.935
		c3.89-3.542,7.647-7.429,11.28-11.643c0.458,4.35,1.563,8.163,3.317,11.424c2.036,4.359,5.08,7.342,9.152,8.936
		c4.066,1.593,8.5,2.247,13.294,1.961c4.795-0.293,9.658-1.458,14.602-3.488c4.938-2.03,9.297-4.501,13.077-7.41
		c5.23-4.065,10.093-8.785,14.601-14.166c4.502-5.373,8.568-10.896,12.205-16.563c3.629-5.666,6.824-11.115,9.589-16.345
		c2.757-5.231,5.013-9.732,6.755-13.513c1.451-3.772,1.233-5.809-0.653-6.102c-1.894-0.286-3.562,0.729-5.013,3.052
		c-1.458,2.907-3.486,6.905-6.102,11.986c-2.616,5.087-5.742,10.461-9.372,16.127c-3.636,5.666-7.627,11.265-11.987,16.781
		c-4.358,5.524-9.009,10.025-13.948,13.513c-6.102,4.358-11.115,6.612-15.038,6.755c-3.922,0.15-6.688-1.307-8.282-4.358
		c-1.6-3.052-2.178-7.41-1.743-13.077c0.435-5.666,1.961-11.986,4.577-18.96c4.937-12.49,10.024-22.372,15.255-29.639
		c5.23-7.26,11.182-12.348,17.871-15.255c5.516-2.323,8.568-2.398,9.152-0.219c0.579,2.18,0.722,5.013,0.436,8.5
		c-0.293,2.328,0.219,3.2,1.526,2.614c1.308-0.579,2.247-1.743,2.833-3.486c2.616-6.682,2.104-11.401-1.525-14.166
		c-3.637-2.759-8.357-3.991-14.166-3.705c-7.56,0.586-14.459,2.764-20.704,6.538c-6.252,3.781-11.769,8.5-16.563,14.166
		c-4.795,5.666-8.868,11.768-12.205,18.307c-3.338,6.538-6.028,12.715-8.063,18.524c-0.653,2.126-1.191,4.148-1.638,6.089
		c-0.325,0.437-0.647,0.887-0.972,1.321c-5.23,6.974-10.174,12.79-14.819,17.435c-4.651,4.651-8.139,6.688-10.461,6.102
		c-1.742-0.286-2.397-1.887-1.961-4.794c0.436-2.902,1.525-6.538,3.269-10.897c1.744-4.358,3.848-9.153,6.321-14.384
		c2.466-5.23,4.863-10.311,7.192-15.255c2.614-5.81,4.863-11.04,6.755-15.691c1.887-4.645,2.977-7.697,3.269-9.154
		c0-2.902-0.653-5.374-1.961-7.41c-1.308-2.03-3.05-3.488-5.23-4.359s-4.652-1.375-7.41-1.525c-2.766-0.143-5.306,0.217-7.628,1.089
		c-3.488,1.165-7.192,3.269-11.115,6.32c-3.923,3.052-7.703,6.47-11.333,10.243c-3.636,3.781-7.048,7.485-10.243,11.115
		c-3.202,3.637-5.666,6.613-7.41,8.936c0.579-0.872,1.375-2.684,2.397-5.449c1.015-2.759,2.18-5.734,3.487-8.936
		c1.308-3.193,2.757-6.388,4.358-9.588c1.594-3.195,3.412-5.953,5.449-8.282c1.158-1.744,0.579-3.12-1.744-4.141
		c-2.328-1.015-5.306-1.594-8.935-1.744c-3.637-0.143-7.192,0.218-10.679,1.089c-3.487,0.872-5.667,2.616-6.539,5.231
		c-0.871,3.2-2.471,8.213-4.794,15.037c-2.33,6.831-4.795,14.242-7.41,22.23c-2.616,7.996-5.231,15.909-7.846,23.754
		c-1.89,5.67-3.47,10.571-4.753,14.723c-3.39,2.245-7.251,3.808-11.587,4.673c-5.088,1.022-10.679,1.383-16.782,1.09
		c-1.164-4.359-0.946-10.461,0.654-18.307c1.594-7.846,3.991-16.706,7.192-26.589c3.194-9.875,6.974-20.336,11.333-31.383
		c4.358-11.04,8.86-21.936,13.512-32.69c4.645-10.747,9.079-21.065,13.294-30.947c4.209-9.875,7.771-18.45,10.678-25.717
		c3.487,0.872,8.207,1.893,14.166,3.05c5.953,1.165,11.987,2.18,18.09,3.052c1.451,6.102,4.065,10.829,7.846,14.166
		c3.772,3.343,7.26,5.523,10.46,6.538c3.195,1.022,5.374,1.022,6.539,0c1.158-1.015,0-2.976-3.488-5.885
		c-2.33-1.451-4.577-3.269-6.756-5.448c-2.178-2.179-4.141-5.013-5.883-8.499c7.846,0.586,15.616,0.367,23.318-0.655
		c7.696-1.015,14.166-3.269,19.396-6.755c7.847-4.938,11.402-10.53,10.68-16.782c-0.729-6.245-5.885-11.837-15.474-16.781
		c-2.037-0.872-4.141-1.594-6.32-2.18c-2.179-0.579-4.291-1.158-6.319-1.744c-7.56-1.451-14.242-0.503-20.051,2.833
		c-5.816,3.344-9.882,7.921-12.205,13.73c-0.585,2.33-1.164,4.652-1.743,6.974c-0.586,2.33-1.022,4.509-1.308,6.539
		c-5.231-0.872-10.318-1.887-15.255-3.052c-4.945-1.158-9.589-2.323-13.949-3.487c-4.358-1.158-8.431-2.247-12.203-3.269
		c-3.78-1.015-7.778-1.887-11.986-2.615c-4.216-0.722-8.718-1.308-13.513-1.744c-4.794-0.436-10.393-0.655-16.781-0.655
		c-11.626,0-22.23,1.383-31.819,4.141c-9.589,2.766-17.802,6.47-24.627,11.116c-6.831,4.651-12.136,9.807-15.909,15.473
		c-3.78,5.666-5.667,11.55-5.667,17.654c0,2.907,0.504,5.012,1.526,6.319c1.015,1.308,2.179,1.894,3.487,1.744
		c1.308-0.143,2.54-0.939,3.705-2.397c1.158-1.451,1.744-3.338,1.744-5.666c0-5.231,1.233-10.025,3.705-14.385
		c2.465-4.358,6.102-8.206,10.897-11.551c4.795-3.338,10.604-5.952,17.435-7.846c6.824-1.887,14.452-2.833,22.884-2.833
		c5.23,0,11.258,0.436,18.088,1.308c6.824,0.872,15.037,2.471,24.627,4.794c-10.175,22.958-19.11,45.188-26.806,66.689
		c-7.703,21.508-14.316,40.686-19.832,57.535c-1.165,4.073-2.33,8.214-3.487,12.422c-1.164,4.216-2.036,8.357-2.615,12.422
		c-0.586,4.073-0.654,7.846-0.218,11.333c0.436,3.488,1.669,6.395,3.705,8.718c-9.303-1.158-18.742-2.901-28.332-5.23
		c-9.589-2.323-18.892-4.141-27.896-5.449c-9.01-1.308-17.149-1.669-24.409-1.09c-7.267,0.586-13.076,2.909-17.434,6.975
		c-2.323,2.328-4.284,5.012-5.885,8.063c-1.594,3.052-2.54,6.245-2.833,9.589c-0.286,3.338,0.218,6.606,1.525,9.807
		c1.308,3.194,3.705,5.953,7.192,8.282c1.157,0.872,2.54,1.233,4.141,1.09c1.593-0.15,2.758-0.586,3.487-1.308
		c0.722-0.729,0.94-1.675,0.654-2.833c-0.293-1.165-1.458-2.473-3.487-3.923c-1.457-0.872-2.472-2.254-3.051-4.141
		c-0.586-1.894-0.803-3.922-0.654-6.102c0.143-2.18,0.94-4.359,2.398-6.538c1.45-2.18,3.773-3.991,6.974-5.448
		c4.066-1.744,7.696-2.902,10.897-3.488c3.195-0.579,6.32-0.653,9.371-0.217c3.052,0.436,6.32,1.089,9.807,1.961
		c3.487,0.872,7.553,1.744,12.204,2.616c13.655,2.614,27.385,4.794,41.19,6.538c13.798,1.744,26.153,1.451,37.05-0.872
		c3.672-0.783,7.073-1.862,10.217-3.223c0.41,0.403,0.925,0.752,1.546,1.043c2.471,1.165,5.23,1.744,8.282,1.744
		c3.05,0,5.809-0.286,8.282-0.872c2.464-0.579,3.269-1.308,2.397-2.18c-1.458-1.158-0.803-5.08,1.961-11.768
		c2.758-6.681,6.68-14.016,11.768-22.012c5.08-7.989,10.679-15.834,16.78-23.537c6.103-7.696,11.619-13.294,16.563-16.782
		c3.195-2.322,5.299-3.555,6.321-3.705c1.015-0.143,0.796,1.383-0.653,4.577C1048.016,1493.504,1046.565,1496.405,1045.115,1499.02z
		 M1044.902,1381.989c0.143-1.887,0.654-3.991,1.526-6.32c2.321-4.645,6.026-7.914,11.115-9.807
		c5.08-1.887,11.836-1.669,20.268,0.653c1.451,0.293,3.119,1.022,5.013,2.18c1.886,1.165,3.269,2.615,4.141,4.358
		c0.872,1.744,0.872,3.562,0,5.449c-0.872,1.894-3.487,3.855-7.846,5.885c-4.945,2.328-10.394,3.636-16.346,3.922
		c-5.959,0.293-12.136,0-18.524-0.872C1044.535,1385.693,1044.752,1383.881,1044.902,1381.989z"/>
	<path d="M536.946,917.477v-4.951c0-18.73-7.79-31.979-23.369-39.745c15.578-7.763,23.369-21.012,23.369-39.745v-81.092
		c0-39.987-18.947-60.03-56.839-60.128h-65.733v285.643h63.019C517.094,977.363,536.946,957.368,536.946,917.477z M457.04,732.435
		h18.695c12.363,0,18.544,6.504,18.544,19.509v81.092c0,9.123-3.871,15.191-11.609,18.198c-2.212,0.778-6.283,1.165-12.212,1.165
		H457.04V732.435z M457.04,936.84v-43.676h13.418c5.929,0,10,0.437,12.212,1.31c7.738,2.912,11.609,8.931,11.609,18.053v4.951
		c0,12.909-6.181,19.363-18.544,19.363H457.04z"/>
	<path d="M575.363,921.991c0,40.086,20.403,60.127,61.211,60.127c40.907-0.098,61.361-20.139,61.361-60.127V691.816h-42.666v230.174
		c0,12.909-6.234,19.363-18.695,19.363c-12.363,0-18.544-6.453-18.544-19.363V691.816h-42.667V921.991z"/>
	<path d="M860.433,921.991v-8.735c0-25.623-13.319-47.608-39.953-65.952c-26.636-18.44-39.953-34.017-39.953-46.733v-53.284
		c0-12.907,6.13-19.364,18.394-19.364h0.301c12.363,0.098,18.544,6.552,18.544,19.364v38.435h42.667v-38.435
		c0-39.987-20.455-59.982-61.362-59.982c-40.807,0-61.21,19.995-61.21,59.982v54.159c0,26.304,13.317,48.626,39.953,66.97
		c26.633,18.441,39.952,34.554,39.952,48.335v5.241c0,12.909-6.181,19.363-18.544,19.363c-12.464,0-18.695-6.453-18.695-19.363
		v-28.682h-42.666v28.682c0,39.988,20.452,60.03,61.361,60.127C840.028,982.118,860.433,962.077,860.433,921.991z"/>
	<rect x="902.619" y="691.816" width="42.667" height="285.643"/>
	<polygon points="1113.06,691.816 1073.558,691.816 1073.558,857.495 1033.154,691.816 990.488,691.816 990.488,977.459 
		1031.496,977.459 1031.496,817.021 1070.393,977.459 1113.06,977.459 	"/>
	<polygon points="1268.17,936.84 1200.174,936.84 1200.174,893.018 1258.671,893.018 1258.671,852.254 1200.174,852.254 
		1200.174,732.435 1268.17,732.435 1268.17,691.816 1157.508,691.816 1157.508,977.459 1268.17,977.459 	"/>
	<path d="M1424.636,921.991v-8.735c0-25.623-13.32-47.608-39.953-65.952c-26.637-18.44-39.953-34.017-39.953-46.733v-53.284
		c0-12.907,6.129-19.364,18.393-19.364h0.302c12.362,0.098,18.543,6.552,18.543,19.364v38.435h42.667v-38.435
		c0-39.987-20.456-59.982-61.363-59.982c-40.807,0-61.211,19.995-61.211,59.982v54.159c0,26.304,13.318,48.626,39.953,66.97
		c26.634,18.441,39.953,34.554,39.953,48.335v5.241c0,12.909-6.181,19.363-18.543,19.363c-12.465,0-18.695-6.453-18.695-19.363
		v-28.682h-42.667v28.682c0,39.988,20.453,60.03,61.363,60.127C1404.23,982.118,1424.636,962.077,1424.636,921.991z"/>
	<path d="M1585.626,785.721v-38.435c0-39.987-20.456-59.982-61.363-59.982c-40.807,0-61.211,19.995-61.211,59.982v54.159
		c0,26.304,13.318,48.626,39.953,66.97c26.634,18.441,39.953,34.554,39.953,48.335v5.241c0,12.909-6.181,19.363-18.543,19.363
		c-12.465,0-18.695-6.453-18.695-19.363v-28.682h-42.667v28.682c0,39.988,20.453,60.03,61.363,60.127
		c40.805,0,61.211-20.042,61.211-60.127v-8.735c0-25.623-13.32-47.608-39.953-65.952c-26.637-18.44-39.953-34.017-39.953-46.733
		v-53.284c0-12.907,6.129-19.364,18.393-19.364h0.302c12.362,0.098,18.543,6.552,18.543,19.364v38.435H1585.626z"/>
	<polygon points="534.628,1159.358 556.03,1306.838 612.518,1306.838 641.491,1122.524 654.885,1021.195 613.246,1021.195 
		584.128,1241.324 555.011,1021.195 514.101,1021.195 484.983,1241.324 455.866,1021.195 414.374,1021.195 427.768,1122.233 
		456.885,1306.838 513.373,1306.838 	"/>
	<polygon points="786.496,1061.813 786.496,1021.195 679.634,1021.195 679.634,1306.838 786.496,1306.838 786.496,1266.218 
		720.835,1266.218 720.835,1222.397 777.323,1222.397 777.323,1181.632 720.835,1181.632 720.835,1061.813 	"/>
	<path d="M935.432,1246.856v-4.951c0-18.73-7.523-31.979-22.566-39.745c15.043-7.763,22.566-21.012,22.566-39.745v-81.092
		c0-39.987-18.297-60.03-54.888-60.127h-63.476v285.642h60.856C916.262,1306.743,935.432,1286.747,935.432,1246.856z
		 M858.27,1061.813h18.053c11.939,0,17.908,6.505,17.908,19.51v81.092c0,9.125-3.738,15.191-11.21,18.198
		c-2.137,0.779-6.068,1.165-11.794,1.165H858.27V1061.813z M858.27,1266.218v-43.676h12.957c5.726,0,9.657,0.437,11.794,1.311
		c7.471,2.91,11.21,8.929,11.21,18.052v4.951c0,12.909-5.969,19.363-17.908,19.363H858.27z"/>
	<path d="M1084.369,1115.099v-38.435c0-39.987-19.752-59.982-59.255-59.982c-39.407,0-59.109,19.995-59.109,59.982v54.159
		c0,26.304,12.859,48.626,38.582,66.97c25.718,18.442,38.58,34.554,38.58,48.335v5.241c0,12.909-5.969,19.363-17.908,19.363
		c-12.037,0-18.053-6.453-18.053-19.363v-28.68h-41.202v28.68c0,39.988,19.75,60.03,59.255,60.127
		c39.404,0,59.109-20.042,59.109-60.127v-8.735c0-25.623-12.862-47.608-38.582-65.952c-25.721-18.44-38.58-34.017-38.58-46.733
		v-53.284c0-12.907,5.919-19.363,17.762-19.363h0.291c11.939,0.098,17.908,6.551,17.908,19.363v38.435H1084.369z"/>
	<rect x="1120.038" y="1021.195" width="41.2" height="285.642"/>
	<polygon points="1267.953,1306.838 1267.953,1061.813 1306.535,1061.813 1306.535,1021.195 1188.171,1021.195 1188.171,1061.813 
		1226.753,1061.813 1226.753,1306.838 	"/>
	<polygon points="1439.601,1061.813 1439.601,1021.195 1332.741,1021.195 1332.741,1306.838 1439.601,1306.838 1439.601,1266.218 
		1373.941,1266.218 1373.941,1222.397 1430.429,1222.397 1430.429,1181.632 1373.941,1181.632 1373.941,1061.813 	"/>
	<path d="M1526.372,1016.682c-39.406,0-59.108,19.995-59.108,59.982v54.159c0,26.304,12.859,48.626,38.58,66.97
		c25.718,18.442,38.58,34.554,38.58,48.335v5.241c0,12.909-5.969,19.363-17.908,19.363c-12.035,0-18.053-6.453-18.053-19.363v-28.68
		h-41.2v28.68c0,39.988,19.75,60.03,59.253,60.127c39.404,0,59.109-20.042,59.109-60.127v-8.735
		c0-25.623-12.862-47.608-38.58-65.952c-25.721-18.44-38.582-34.017-38.582-46.733v-53.284c0-12.907,5.92-19.363,17.762-19.363
		h0.291c11.939,0.098,17.908,6.551,17.908,19.363v38.435h41.202v-38.435C1585.626,1036.677,1565.874,1016.682,1526.372,1016.682z"/>
	<path d="M580.211,461.098c107.935-66.241,248.024-102.722,394.462-102.722c146.446,0,286.536,36.481,394.463,102.722l6.753,4.144
		l94.004-136.901l-7.15-4.666c-133.855-87.365-307.189-135.479-488.071-135.479c-180.891,0-354.225,48.115-488.072,135.479
		l-7.15,4.667l94.008,136.9L580.211,461.098z M974.672,204.877c174.461,0,341.601,45.452,471.775,128.144l-75.369,109.76
		c-109.561-65.235-249.96-101.085-396.406-101.085c-146.437,0-286.836,35.851-396.404,101.086L502.898,333.02
		C633.063,250.329,800.202,204.877,974.672,204.877z"/>
	<path d="M1369.14,1538.904c-107.93,66.241-248.02,102.723-394.464,102.723c-146.442,0-286.531-36.482-394.46-102.723l-6.753-4.146
		l-94.008,136.903l7.15,4.667c133.857,87.364,307.191,135.476,488.071,135.476c180.89,0,354.225-48.112,488.075-135.476l7.15-4.667
		l-94.007-136.903L1369.14,1538.904z M974.675,1795.123c-174.46,0-341.599-45.45-471.774-128.14l75.371-109.763
		c109.563,65.237,249.961,101.087,396.403,101.087c146.443,0,286.844-35.851,396.407-101.087l75.372,109.763
		C1316.286,1749.673,1149.144,1795.123,974.675,1795.123z"/>
	<path d="M607.739,355.983c8.422-2.69,15.419-2.993,17.942,2.713c2.905,6.571-2.731,12.059-9.906,15.231
		c-7.349,3.248-15.651,3.405-21.273-2.067l-7.332,9.132c9.388,9.079,20.58,8.678,32.942,3.213
		c13.487-5.963,22.857-17.029,16.894-30.516c-6.383-14.438-19.593-12.525-32.904-8.5c-7.644,2.346-14.518,3.628-16.85-1.646
		c-1.987-4.495,0.509-9.836,8.982-13.582c6.57-2.905,13.729-2.142,17.332,0.399l7.014-8.682c-8.71-7.311-19.664-5.672-29.088-1.506
		c-11.114,5.017-21.135,15.545-15.632,27.994C581.863,361.738,594.727,359.978,607.739,355.983z"/>
	<polygon points="663.574,364.384 648.146,318.814 677.355,339.361 679.683,338.573 690.882,304.446 706.279,349.926 
		718.096,345.926 696.88,283.255 683.361,287.833 672.877,321.418 644.147,301.108 630.539,305.715 651.756,368.385 	"/>
	<path d="M736.408,328.286l33.621-8.151l8.36,10.811l13.228-3.207l-44.434-57.31l-13.228,3.207l-13.255,71.297l13.136-3.185
		L736.408,328.286z M743.842,285.537l18.579,24.48l-23.884,5.79L743.842,285.537z"/>
	<polygon points="842.33,319.509 840.42,308.136 806.862,313.772 797.814,259.891 785.509,261.957 796.466,327.211 	"/>
	<polygon points="895.859,313.526 894.619,302.06 860.786,305.717 854.913,251.396 842.507,252.736 849.619,318.525 	"/>
	<path d="M952.629,310.83c13.701-0.36,24.633-5.375,24.246-20.115c-0.109-4.158-3.16-12.304-10.97-14.463
		c6.07-2.902,8.397-7.879,8.264-12.982c-0.35-13.323-10.237-18.926-23.276-18.584c-10.488,0.276-20.977,0.551-31.372,0.824
		l1.738,66.144C931.747,311.379,942.141,311.105,952.629,310.83z M964.494,290.945c0.164,6.237-7.067,8.128-12.17,8.263
		l-19.087,0.501L932.79,282.7l19.088-0.502C956.98,282.065,964.338,284.992,964.494,290.945z M951.19,256.025
		c7.937-0.208,10.528,4.829,10.607,7.853c0.1,3.78-2.365,7.154-10.207,7.36l-19.088,0.501l-0.399-15.213L951.19,256.025z"/>
	<path d="M1013.839,312.796c16.623,0.698,29.039-8.81,29.86-28.361l1.589-37.875l-12.373-0.519l-1.59,37.874
		c-0.477,11.334-6.622,17.983-16.917,17.551c-10.295-0.432-16.83-7.046-16.33-18.947l1.59-37.874l-12.373-0.52L985.707,282
		C984.87,301.929,997.971,312.13,1013.839,312.796z"/>
	<path d="M1079.093,306.786c-7.985-0.885-15.24-4.923-17.35-12.479l-10.927,4.21c3.552,12.565,13.428,17.844,26.861,19.334
		c14.654,1.625,28.315-3.232,29.94-17.887c1.739-15.688-10.641-20.674-24.168-23.886c-7.788-1.814-14.374-4.161-13.739-9.891
		c0.542-4.885,5.384-8.247,14.59-7.226c7.14,0.791,12.943,5.048,14.781,9.056l10.427-3.979
		c-3.854-10.697-14.146-14.787-24.385-15.922c-12.129-1.25-26.084,2.814-27.582,16.342c-1.636,14.748,10.368,19.693,23.625,22.779
		c8.632,1.908,14.833,5.163,14.146,11.363C1094.52,305.739,1086.89,307.651,1079.093,306.786z"/>
	
		<rect x="1119.018" y="255.995" transform="matrix(0.9878 0.1557 -0.1557 0.9878 58.7463 -171.7027)" width="12.382" height="66.164"/>
	<polygon points="1158.888,283.098 1183.785,333.978 1183.804,333.886 1191.391,335.471 1204.951,270.615 1192.739,268.062 
		1184.324,308.308 1160.985,261.52 1151.085,259.45 1137.545,324.214 1149.758,326.767 	"/>
	<path d="M1248.233,351.364l3.366-11.818l-35.726-10.178l4.091-14.363l34.454,9.815l3.186-11.181l-34.454-9.815l4.169-14.636
		l35.727,10.178l3.315-11.636l-47.636-13.57c-6.034,21.182-12.094,42.454-18.128,63.635L1248.233,351.364z"/>
	<path d="M1284.514,354.115c-7.542-2.769-13.621-8.424-13.862-16.266l-11.617,1.474c0.444,13.051,8.769,20.538,21.458,25.197
		c13.841,5.082,28.268,3.634,33.35-10.207c5.441-14.817-5.388-22.619-17.756-28.973c-7.127-3.624-12.961-7.478-10.974-12.89
		c1.694-4.613,7.2-6.72,15.895-3.527c6.744,2.476,11.361,7.998,12.187,12.328l11.076-1.37c-1.184-11.309-10.2-17.741-19.871-21.292
		c-11.479-4.115-25.999-3.506-30.691,9.27c-5.115,13.93,5.359,21.601,17.492,27.769c7.926,3.917,13.167,8.56,11.017,14.416
		C1299.742,356.788,1291.877,356.819,1284.514,354.115z"/>
	<path d="M1316.977,360.61c-0.589,13.047,7.12,21.17,19.401,26.817c13.397,6.161,27.895,5.857,34.056-7.54
		c6.595-14.342-3.584-22.976-15.411-30.288c-6.82-4.176-12.331-8.48-9.922-13.719c2.052-4.466,7.709-6.131,16.125-2.26
		c6.527,3.001,10.694,8.871,11.176,13.254l11.149-0.491c-0.285-11.368-8.766-18.493-18.127-22.798
		c-11.118-5.009-25.643-5.55-31.33,6.816c-6.199,13.484,3.635,21.96,15.246,29.067c7.591,4.532,12.451,9.576,9.844,15.244
		c-3.001,6.527-10.846,5.937-17.974,2.659c-7.299-3.357-12.913-9.476-12.535-17.313L1316.977,360.61z"/>
	<polygon points="619.069,1649.588 589.3,1636.5 600.525,1610.97 589.102,1605.947 562.466,1666.524 573.889,1671.547 
		584.658,1647.057 614.427,1660.147 603.658,1684.637 614.994,1689.621 641.63,1629.045 630.294,1624.06 	"/>
	<path d="M690.887,1686.221c-3.543,10.774-11.265,15.498-21.052,12.28s-14.272-11.359-10.552-22.672l11.839-36.003l-11.762-3.869
		l-11.839,36.004c-6.23,18.945,3.597,32.324,18.681,37.284c15.802,5.196,30.334-0.572,36.445-19.156l11.84-36.003l-11.762-3.867
		L690.887,1686.221z"/>
	<path d="M762.772,1675.956c5.616,1.303,11.528,5.1,14.894,10.247l9.345-5.984c-5.113-8.074-12.999-13.397-21.654-15.404
		c-22.742-5.275-37.955,8.855-42.162,26.993c-3.931,16.941,2.226,35.156,26.442,40.773c11.325,2.628,20.34,0.159,28.38-5.642
		l6.301-27.161l-27.622-6.409l-2.521,10.865l16.482,3.824l-2.648,11.416c-6.004,2.876-10.68,2.957-15.744,1.782
		c-16.021-3.717-19.649-16.105-17.192-26.693C738.148,1681.305,748.961,1672.752,762.772,1675.956z"/>
	<path d="M798.311,1741.199l48.98,7.334l1.82-12.151l-36.736-5.502l2.212-14.769l35.426,5.306l1.722-11.498l-35.426-5.306
		l2.253-15.049l36.736,5.502l1.792-11.965l-48.981-7.336C804.849,1697.546,801.573,1719.419,798.311,1741.199z"/>
	<path d="M956.806,1712.095c0.526-11.426-7.211-22.192-22.788-23.004c-10.482-0.483-20.958-1.06-31.44-1.542l-3.048,66.194
		l12.465,0.574l1.017-22.097l11.992,0.552l18.246,22.983l14.826,0.683l0.039-0.85l-18.979-23.49
		C951.812,1730.128,956.388,1721.161,956.806,1712.095z M932.509,1721.858l-18.98-0.874l0.974-21.152l18.98,0.874
		c7.838,0.361,11.088,5.81,10.845,11.099C944.084,1717.092,940.441,1722.223,932.509,1721.858z"/>
	<path d="M987.494,1743.813l-0.369-14.929l35.812-0.885l-0.286-11.623l-35.813,0.885l-0.375-15.213l37.135-0.918l-0.299-12.095
		l-49.514,1.223c0.544,22.017,1.089,44.127,1.633,66.144l49.514-1.222l-0.303-12.285L987.494,1743.813z"/>
	<path d="M1071.352,1710.952c-7.994-0.164-14.924-1.097-15.489-6.835c-0.48-4.892,3.562-9.183,12.781-10.09
		c7.148-0.702,13.709,2.261,16.336,5.803l9.379-6.052c-5.985-9.669-16.902-11.54-27.155-10.533
		c-12.125,1.287-24.938,8.15-23.606,21.696c1.452,14.769,14.221,17.123,27.829,17.4c8.841,0.08,15.581,1.982,16.192,8.191
		c0.703,7.148-6.366,10.598-14.173,11.366c-7.997,0.786-15.93-1.664-19.558-8.62l-9.82,6.379
		c6.075,11.56,16.828,14.681,30.281,13.359c14.674-1.443,27.036-9.022,25.594-23.696
		C1098.397,1713.613,1085.253,1711.296,1071.352,1710.952z"/>
	<path d="M1169.725,1670.408l-12.187,2.187l6.694,37.304c2.004,11.164-2.545,18.99-12.685,20.808
		c-10.14,1.819-17.957-3.212-20.061-14.933l-6.694-37.304l-12.186,2.187l6.694,37.304c3.521,19.629,18.527,26.731,34.156,23.927
		c16.372-2.938,26.417-14.918,22.963-34.175L1169.725,1670.408z"/>
	<polygon points="1215.077,1715.538 1201.2,1662.699 1189.134,1665.868 1205.94,1729.859 1250.917,1718.047 1247.988,1706.894 	"/>
	<path d="M1288.87,1636.094c-18.205,6.067-33.54,11.177-51.654,17.214l3.585,10.762l19.909-6.635l17.333,52.012l11.838-3.945
		l-17.333-52.012l19.907-6.634L1288.87,1636.094z"/>
	<path d="M1337.249,1644.023c-7.666,2.271-14.552,3.486-16.831-1.809c-1.944-4.515,0.604-9.831,9.113-13.493
		c6.597-2.84,13.747-2.008,17.325,0.567l7.098-8.612c-8.638-7.395-19.606-5.863-29.069-1.789
		c-11.162,4.907-21.285,15.337-15.903,27.837c5.867,13.63,18.747,11.996,31.797,8.127c8.448-2.608,15.447-2.843,17.913,2.887
		c2.84,6.599-2.848,12.031-10.053,15.133c-7.379,3.177-15.681,3.252-21.251-2.274l-7.419,9.058
		c9.297,9.17,20.492,8.878,32.906,3.533c13.543-5.83,23.019-16.804,17.19-30.346
		C1363.824,1638.344,1350.597,1640.128,1337.249,1644.023z"/>
	<polygon points="647.309,555.887 636.65,534.288 625.99,555.887 602.154,559.351 619.402,576.163 615.33,599.903 636.65,588.695 
		657.969,599.903 653.897,576.163 671.145,559.351 	"/>
	<polygon points="1374.01,555.887 1363.35,534.288 1352.691,555.887 1328.855,559.351 1346.103,576.163 1342.031,599.903 
		1363.35,588.695 1384.67,599.903 1380.598,576.163 1397.846,559.351 	"/>
	<polygon points="721.563,1442.488 710.903,1420.889 700.244,1442.488 676.408,1445.952 693.656,1462.764 689.584,1486.504 
		710.903,1475.296 732.223,1486.504 728.151,1462.764 745.399,1445.952 	"/>
	<polygon points="1299.756,1442.488 1289.097,1420.889 1278.437,1442.488 1254.601,1445.952 1271.849,1462.764 1267.777,1486.504 
		1289.097,1475.296 1310.416,1486.504 1306.344,1462.764 1323.592,1445.952 	"/>
</g>
</svg>
